<mxfile host="app.diagrams.net" agent="Mozilla/5.0 (Windows NT 10.0; Win64; x64) AppleWebKit/537.36 (KHTML, like Gecko) Chrome/141.0.0.0 Safari/537.36" version="28.2.7">
  <diagram name="Page-1" id="yRgntlST6PlEjtTkFJXN">
    <mxGraphModel dx="1042" dy="561" grid="1" gridSize="10" guides="1" tooltips="1" connect="1" arrows="1" fold="1" page="1" pageScale="1" pageWidth="850" pageHeight="1100" math="0" shadow="0">
      <root>
        <mxCell id="0" />
        <mxCell id="1" parent="0" />
        <mxCell id="NEts6W3dRyk91nlPADY1-1" value="" style="rounded=1;whiteSpace=wrap;html=1;fillColor=#dae8fc;gradientColor=#7ea6e0;strokeColor=#6c8ebf;" vertex="1" parent="1">
          <mxGeometry x="320" y="40" width="150" height="80" as="geometry" />
        </mxCell>
        <mxCell id="NEts6W3dRyk91nlPADY1-2" value="&lt;b&gt;&lt;font face=&quot;Comic Sans MS&quot;&gt;Modules&lt;/font&gt;&lt;/b&gt;" style="text;html=1;whiteSpace=wrap;strokeColor=none;fillColor=none;align=center;verticalAlign=middle;rounded=0;" vertex="1" parent="1">
          <mxGeometry x="340" y="40" width="60" height="30" as="geometry" />
        </mxCell>
        <mxCell id="NEts6W3dRyk91nlPADY1-3" value="" style="verticalLabelPosition=bottom;html=1;verticalAlign=top;align=center;strokeColor=#b85450;fillColor=#f8cecc;shape=mxgraph.azure.code_file;pointerEvents=1;gradientColor=#ea6b66;" vertex="1" parent="1">
          <mxGeometry x="422.5" y="50" width="47.5" height="50" as="geometry" />
        </mxCell>
        <mxCell id="NEts6W3dRyk91nlPADY1-12" style="edgeStyle=orthogonalEdgeStyle;rounded=0;orthogonalLoop=1;jettySize=auto;html=1;entryX=0;entryY=0.5;entryDx=0;entryDy=0;" edge="1" parent="1" source="NEts6W3dRyk91nlPADY1-4" target="NEts6W3dRyk91nlPADY1-1">
          <mxGeometry relative="1" as="geometry">
            <Array as="points">
              <mxPoint x="150" y="80" />
            </Array>
          </mxGeometry>
        </mxCell>
        <mxCell id="NEts6W3dRyk91nlPADY1-4" value="" style="rounded=0;whiteSpace=wrap;html=1;fillColor=#d5e8d4;gradientColor=#97d077;strokeColor=#82b366;" vertex="1" parent="1">
          <mxGeometry x="80" y="200" width="120" height="80" as="geometry" />
        </mxCell>
        <mxCell id="NEts6W3dRyk91nlPADY1-5" value="&lt;b&gt;roboshop-infra&lt;/b&gt;" style="text;html=1;whiteSpace=wrap;strokeColor=none;fillColor=none;align=center;verticalAlign=middle;rounded=0;" vertex="1" parent="1">
          <mxGeometry x="90" y="200" width="100" height="30" as="geometry" />
        </mxCell>
        <mxCell id="NEts6W3dRyk91nlPADY1-9" value="&lt;b&gt;parameterised code&lt;/b&gt;" style="text;html=1;whiteSpace=wrap;strokeColor=none;fillColor=none;align=center;verticalAlign=middle;rounded=0;" vertex="1" parent="1">
          <mxGeometry x="330" y="90" width="140" height="30" as="geometry" />
        </mxCell>
        <mxCell id="NEts6W3dRyk91nlPADY1-11" value="&lt;b&gt;provider&lt;/b&gt;" style="ellipse;whiteSpace=wrap;html=1;aspect=fixed;fillColor=#f8cecc;gradientColor=#ea6b66;strokeColor=#b85450;" vertex="1" parent="1">
          <mxGeometry x="150" y="230" width="50" height="50" as="geometry" />
        </mxCell>
        <mxCell id="NEts6W3dRyk91nlPADY1-13" value="&lt;b&gt;I/P&lt;/b&gt;" style="text;html=1;whiteSpace=wrap;strokeColor=none;fillColor=none;align=center;verticalAlign=middle;rounded=0;" vertex="1" parent="1">
          <mxGeometry x="100" y="130" width="60" height="30" as="geometry" />
        </mxCell>
        <mxCell id="NEts6W3dRyk91nlPADY1-14" value="&lt;b&gt;O/P&lt;/b&gt;" style="text;html=1;whiteSpace=wrap;strokeColor=none;fillColor=none;align=center;verticalAlign=middle;rounded=0;" vertex="1" parent="1">
          <mxGeometry x="240" y="80" width="60" height="30" as="geometry" />
        </mxCell>
      </root>
    </mxGraphModel>
  </diagram>
</mxfile>
